PathFileType	4	(X/Y/Z)	D:\TRACE\v60_Jaco2_6-2-23\BothDRS_Motion1_4-platform.trc
DataRate	CameraRate	NumFrames	NumMarkers	Units	OrigDataRate	OrigDataStartFrame	OrigNumFrames
100.00	100.00	      73	5	mm	100.00	1745	      6979
Frame#	Time	Left_Front			Right_Front			Left_Aft			Right_Aft			Post			
		X1	Y1	Z1	X2	Y2	Z2	X3	Y3	Z3	X4	Y4	Z4	X5	Y5	Z5	

1745	17.440	-820.42548	33.04916	-632.54443	749.52423	33.92882	-637.60791	-728.72485	-8.84859	501.83627	713.15479	-10.69830	511.54300	-34.22155	1342.59241	-906.88721	
1746	17.450	-821.43390	32.61459	-632.83978	748.76544	33.61956	-637.64648	-729.68396	-8.64310	501.83408	712.01477	-10.96127	511.93726	-35.09391	1342.16785	-908.02527	
1747	17.460	-822.48462	32.36469	-632.80182	747.57129	33.40321	-637.78876	-730.66229	-8.61633	501.77628	711.66650	-10.19745	511.43015	-35.50155	1342.04663	-909.55310	
1748	17.470	-823.61127	32.06911	-632.59033	746.68793	33.31089	-637.70538	-731.50879	-8.51171	501.71622	710.81519	-10.19160	511.46707	-36.36600	1341.78430	-910.76709	
1749	17.480	-824.41827	32.01879	-632.51398	745.83020	33.16985	-637.80988	-732.32031	-8.33660	501.73877	710.12793	-10.04307	511.47046	-37.56447	1341.48120	-911.94360	
1750	17.490	-825.08417	31.80934	-632.71967	745.00110	32.98333	-637.90399	-733.28693	-8.16492	501.80060	709.06012	-9.73057	511.39569	-38.54636	1341.35425	-913.13129	
1751	17.500	-826.01434	31.50496	-633.05164	744.02405	32.86592	-637.80762	-734.12213	-8.03491	501.68466	708.19592	-9.71123	511.39984	-39.03422	1340.98950	-913.63397	
1752	17.510	-827.22485	31.23817	-632.87384	743.00494	32.34166	-637.98804	-735.14185	-7.78680	501.62643	707.39752	-9.47447	511.50415	-39.85547	1340.69629	-914.09833	
1753	17.520	-827.88135	31.20549	-633.27649	742.30078	32.09690	-637.80505	-736.15839	-7.60155	501.53143	706.29938	-9.31481	511.36465	-40.80688	1340.24841	-913.98315	
1754	17.530	-828.56403	31.09052	-632.77936	741.40204	32.03891	-638.07520	-736.92230	-7.49812	501.60745	705.44727	-9.26446	511.24643	-41.76086	1339.83704	-913.70477	
1755	17.540	-829.52283	30.75400	-633.01752	740.48871	31.80152	-638.13062	-737.62317	-7.34719	501.64890	704.64453	-9.00900	511.26865	-42.36462	1339.58850	-913.60858	
1756	17.550	-830.69019	30.67845	-633.23016	739.69562	31.63887	-638.13788	-738.46375	-7.19372	501.58884	703.52258	-8.81569	511.23721	-43.38342	1339.29773	-913.27429	
1757	17.560	-831.47455	30.55314	-633.55597	738.79010	31.23157	-638.27020	-739.49207	-6.92466	501.47092	702.93420	-8.76862	511.07071	-44.85694	1339.10852	-913.00488	
1758	17.570	-831.87372	30.11553	-633.05817	737.93542	30.91219	-638.38477	-740.22015	-6.90195	501.26053	702.26837	-8.50914	511.10907	-45.59702	1338.62671	-913.27820	
1759	17.580	-832.78455	29.91760	-633.22797	737.05939	30.83315	-638.42914	-741.06348	-6.59521	501.07965	701.32098	-8.37332	510.98141	-46.15350	1338.09106	-913.54510	
1760	17.590	-833.62964	29.90740	-633.51941	736.40033	30.71571	-638.44562	-741.95093	-6.39507	501.21716	701.59814	-7.79513	511.04825	-46.84475	1337.97620	-914.46552	
1761	17.600	-834.77167	29.59969	-633.66602	735.64862	30.57807	-638.42676	-742.62378	-6.42590	501.03000	700.30298	-7.52170	510.58456	-47.72761	1337.71277	-915.97510	
1762	17.610	-835.70398	29.29582	-633.67853	734.76306	30.13291	-638.56909	-743.32800	-6.26545	501.17422	698.95477	-7.81920	510.76666	-48.97823	1337.26941	-917.22711	
1763	17.620	-835.90015	29.10695	-633.58789	733.77673	29.87410	-638.72498	-744.30536	-5.98296	501.13266	697.73248	-8.22639	510.65875	-49.48648	1336.96887	-918.49072	
1764	17.630	-836.55908	28.99885	-633.62244	733.16382	29.70674	-638.73218	-745.12317	-5.71076	501.08185	696.76031	-8.01130	510.74338	-50.08717	1336.60657	-919.68451	
1765	17.640	-837.60767	28.44018	-633.69678	732.60980	29.24673	-638.70282	-745.63660	-5.41982	501.04956	695.57758	-7.61547	510.81854	-50.66090	1336.26428	-920.13507	
1766	17.650	-838.69470	28.02896	-633.79578	731.72559	28.52314	-638.81512	-746.55878	-5.26518	500.94620	694.78235	-7.72602	510.29932	-51.64207	1335.70520	-921.01471	
1767	17.660	-839.14227	27.71900	-633.88428	730.84534	28.59977	-638.97833	-747.33154	-5.25544	500.86301	693.39667	-7.77651	509.97598	-52.18308	1335.22302	-921.25293	
1768	17.670	-839.68445	27.56875	-633.78857	730.20764	28.36137	-638.88953	-747.97559	-5.03533	500.79022	692.61499	-7.61553	510.41321	-53.05262	1334.72595	-921.42206	
1769	17.680	-840.47937	27.27545	-633.71106	729.79352	28.02999	-638.83722	-748.66351	-4.57032	500.46967	691.07599	-8.06880	510.36008	-53.84204	1334.50513	-921.79419	
1770	17.690	-840.93317	27.25983	-633.89410	729.12073	27.75873	-639.00195	-749.18268	-4.82615	500.63910	693.06635	-6.25465	510.30383	-54.33279	1334.16797	-921.90240	
1771	17.700	-841.94177	27.04643	-634.06079	728.33411	27.71496	-639.07208	-749.93866	-4.49660	500.64136	692.43304	-5.98383	510.40982	-55.07456	1333.61182	-921.95227	
1772	17.710	-842.79254	26.46947	-634.29370	727.57959	27.17602	-639.16687	-750.42078	-4.41726	500.69019	691.95984	-5.85337	510.37503	-55.56081	1333.23999	-922.16626	
1773	17.720	-843.26556	26.22101	-634.36713	727.01471	26.83338	-639.25610	-750.61285	-4.83148	500.88736	691.02844	-5.68967	510.33557	-56.50733	1333.02588	-922.70471	
1774	17.730	-843.69135	26.17987	-634.20953	726.52661	26.76397	-639.25665	-751.82239	-4.06304	500.45282	690.46118	-5.37970	510.27222	-57.06015	1332.51587	-923.39600	
1775	17.740	-844.12390	26.02072	-634.24976	725.79578	26.55510	-639.48944	-752.39362	-3.79967	500.43735	690.26978	-5.13092	510.08740	-57.58619	1332.23523	-924.14838	
1776	17.750	-844.65662	25.48560	-634.39557	725.29700	26.22700	-639.52844	-752.99463	-3.35280	500.25168	689.62933	-4.93199	509.93658	-58.04852	1331.72046	-925.68402	
1777	17.760	-845.33771	25.03624	-634.51910	724.55896	25.64002	-639.77478	-753.58264	-2.99580	500.24564	688.90295	-4.67697	509.79474	-58.40934	1331.18213	-926.36365	
1778	17.770	-845.97467	24.89432	-634.70514	723.99188	25.22473	-639.74377	-754.01599	-2.84598	500.24762	688.34802	-4.56745	509.70963	-59.57709	1330.72412	-927.62891	
1779	17.780	-846.56659	24.50195	-634.66425	723.69421	24.96316	-639.87286	-754.64130	-2.66478	500.27835	687.69757	-4.40767	509.71613	-59.41784	1330.02051	-928.49561	
1780	17.790	-847.03851	23.91552	-634.59259	723.17633	24.49787	-640.03900	-755.05865	-2.51440	500.19403	687.25330	-3.94522	509.69745	-60.45924	1329.68091	-929.37695	
1781	17.800	-847.51129	23.66308	-635.02612	722.56207	24.13002	-640.16577	-755.47327	-2.18709	500.06882	686.97772	-3.69091	509.57840	-60.90064	1329.31958	-930.00488	
1782	17.810	-847.70398	23.30506	-635.08478	721.90216	23.80463	-640.43616	-755.89246	-1.92960	499.98090	686.40576	-3.54641	509.52295	-61.01846	1328.91455	-930.45306	
1783	17.820	-848.01068	23.04298	-635.04999	721.57275	23.45086	-640.38696	-756.23407	-1.64359	499.91351	685.75763	-3.32630	509.42508	-61.68898	1328.09058	-931.43134	
1784	17.830	-848.51422	22.37740	-635.14832	721.03394	22.88573	-640.33276	-756.57849	-1.43629	499.84634	685.47662	-3.04935	509.33655	-61.80539	1327.60828	-931.89850	
1785	17.840	-848.77991	22.32259	-635.04584	720.67206	22.58280	-640.46735	-756.94232	-1.18779	499.79672	685.37103	-2.77064	509.32364	-62.12941	1327.22205	-932.36774	
1786	17.850	-849.08630	22.09068	-635.37671	720.36652	22.29154	-640.63342	-757.26239	-0.96547	499.82651	685.12488	-2.57815	509.34677	-62.41282	1326.77112	-932.70056	
1787	17.860	-849.37775	21.96444	-635.48328	720.09595	21.99121	-640.75470	-757.51605	-0.71074	499.81525	684.81079	-2.22225	509.20255	-63.09206	1326.18469	-933.68964	
1788	17.870	-849.80206	21.59305	-635.48669	720.21466	22.02563	-640.65503	-757.90503	-0.40309	499.67816	684.55774	-1.85516	509.05511	-62.91699	1325.90759	-934.58832	
1789	17.880	-850.19293	20.82376	-635.49780	720.06970	21.56036	-640.65784	-758.17438	-0.25546	499.54279	684.35175	-1.75792	508.97177	-63.23666	1325.38586	-935.40631	
1790	17.890	-850.39557	20.38814	-635.59155	720.05652	21.23599	-640.68134	-758.41931	-0.06154	499.44592	684.02563	-1.56777	508.91638	-63.77380	1324.64075	-936.18787	
1791	17.900	-850.48712	20.05495	-635.73340	719.85791	20.81688	-640.78436	-758.60132	0.32921	499.34695	683.85083	-1.15772	508.85648	-63.56088	1323.97913	-937.33014	
1792	17.910	-850.71063	19.77555	-635.94110	719.76025	20.35278	-640.97699	-758.61932	0.56920	499.29559	683.71790	-0.75847	508.86090	-63.71775	1323.40491	-938.16644	
1793	17.920	-850.87622	19.57854	-636.04102	719.50995	19.90257	-641.21045	-758.73419	0.83328	499.07080	683.51697	-0.54185	508.74786	-63.85745	1322.96082	-939.46326	
1794	17.930	-851.03418	18.92238	-636.06287	719.44287	19.52671	-641.27216	-758.74469	0.97517	498.96957	683.45947	-0.30658	508.57629	-64.01172	1322.33118	-940.33856	
1795	17.940	-851.17224	18.54609	-636.15430	719.37213	19.19255	-641.30292	-758.77313	1.19430	498.92014	683.44629	-0.08675	508.47546	-64.06467	1321.62903	-940.84869	
1796	17.950	-850.98285	18.11085	-636.35675	719.37457	18.67297	-641.32397	-758.90662	1.57775	498.80869	683.46082	0.30189	508.32828	-63.90044	1321.20068	-942.09344	
1797	17.960	-850.95709	17.82921	-636.60895	719.32990	18.37331	-641.37366	-758.96234	1.95604	498.70590	683.29950	0.74389	508.31415	-64.38076	1320.66675	-942.98309	
1798	17.970	-851.00958	17.51976	-636.77289	719.14996	18.01682	-641.54712	-758.90582	2.25475	498.65408	683.13324	0.96889	508.15891	-64.25931	1319.88855	-943.69550	
1799	17.980	-851.00281	17.06804	-636.81384	719.05060	17.76002	-641.76263	-758.93274	2.67335	498.48846	683.08551	1.17016	508.08716	-64.25836	1319.17517	-944.81958	
1800	17.990	-851.08331	16.45881	-636.84747	719.10297	17.39867	-641.93958	-758.99744	3.05361	498.33618	682.96930	1.41781	508.04797	-64.39124	1318.48572	-945.36621	
1801	18.000	-851.00464	15.88384	-636.80658	719.16693	16.68695	-641.93524	-759.12012	3.33280	498.33676	682.92401	1.75618	507.93912	-64.64700	1317.93372	-946.75897	
1802	18.010	-850.99579	15.26872	-636.84094	719.12543	16.04501	-641.95337	-759.18304	3.71593	498.33963	683.05121	2.23857	508.00119	-64.54236	1317.52966	-947.51825	
1803	18.020	-850.88666	14.73524	-637.23358	719.14313	15.75325	-642.00446	-759.52777	4.36953	498.32413	683.33435	2.50256	508.24222	-64.06923	1316.87439	-948.56128	
1804	18.030	-850.84442	14.52245	-637.36420	719.21613	15.30253	-642.12268	-758.82770	3.73096	497.87570	683.26648	2.57214	509.20776	-64.58484	1316.27612	-949.73785	
1805	18.040	-850.89020	14.35310	-637.41278	719.25336	14.90857	-642.24420	-758.80890	4.03684	497.81360	682.99121	2.62546	507.10861	-64.50229	1315.65076	-950.26569	
1806	18.050	-850.70953	14.16052	-637.43433	719.32922	14.68330	-642.47937	-758.19403	3.60490	497.88556	683.07532	2.85093	506.98093	-64.23045	1315.23291	-951.45624	
1807	18.060	-850.43372	13.67164	-637.57788	719.48059	14.45741	-642.62024	-758.27087	4.39264	497.79242	683.61603	3.42542	506.81003	-64.32684	1314.73792	-951.87115	
1808	18.070	-850.21558	12.85378	-637.65643	719.95306	13.83168	-642.70062	-758.10553	4.87259	497.68939	684.00201	3.90261	506.71622	-63.52337	1313.90710	-952.18762	
1809	18.080	-850.06775	11.91353	-637.44489	720.34070	13.29599	-642.90161	-757.95013	5.30402	497.55908	684.33905	4.35202	506.66922	-63.13472	1312.98047	-953.17975	
1810	18.090	-849.79706	11.53122	-637.54138	720.53192	12.90964	-642.91431	-757.80646	5.72911	497.47470	684.51642	4.68755	506.51807	-63.43319	1312.38403	-953.94592	
1811	18.100	-849.57166	11.30487	-637.60577	720.72375	12.40413	-643.06506	-757.36932	5.99516	497.29648	684.63257	4.91282	506.37674	-62.89057	1311.39978	-955.41986	
1812	18.110	-849.32257	10.82663	-637.83618	720.96002	11.69773	-643.12830	-757.05054	6.47230	497.00638	684.71527	5.33174	506.21286	-62.71368	1310.51270	-956.84436	
1813	18.120	-849.02454	10.22897	-638.34717	721.16113	11.39806	-643.24841	-756.85693	7.00764	496.90164	684.42651	5.25667	506.88492	-62.67561	1310.03772	-958.28198	
1814	18.130	-848.65753	9.89913	-638.83453	721.68646	10.80025	-643.28821	-756.59241	7.25951	496.77490	685.07587	6.14416	506.70129	-61.81403	1309.37415	-960.01575	
1815	18.140	-848.42963	9.51846	-638.83093	721.74963	10.27791	-643.45245	-756.26123	7.41292	496.69009	685.70691	6.43984	506.40424	-61.74092	1308.44141	-961.92609	
1816	18.150	-848.08148	8.93412	-638.72699	722.04651	9.87421	-643.68018	-755.97040	7.58662	496.66586	686.23792	6.77826	506.40088	-61.37585	1308.02612	-963.59167	
1817	18.160	-847.61804	8.34387	-638.61816	722.40961	9.54380	-643.73224	-755.68994	8.05478	496.64951	686.54700	6.95477	506.31750	-61.23718	1307.35352	-964.47729	
